<svg width="58" height="58" viewBox="0 0 58 58" fill="none" xmlns="http://www.w3.org/2000/svg">
<g clip-path="url(#clip0_74_10431)">
<path d="M17.9495 4.42004L9.10945 8.84004L4.68945 17.68V39.78L9.10945 48.62L17.9495 53.04H40.0495L48.8895 48.62L53.3095 39.78V17.68L48.8895 8.84004L40.0495 4.42004H17.9495Z" fill="#CBFF63"/>
<g style="mix-blend-mode:screen" opacity="0.4">
<path d="M22.3692 4.42004H17.9492V8.84004H22.3692V4.42004Z" fill="white"/>
<path d="M17.9493 8.84009H13.5293V13.2601H17.9493V8.84009Z" fill="white"/>
<path d="M13.5294 8.84009H9.10938V13.2601H13.5294V8.84009Z" fill="white"/>
<path d="M26.7891 4.42004H22.3691V8.84004H26.7891V4.42004Z" fill="white"/>
<path d="M40.0499 4.42004H35.6299V8.84004H40.0499V4.42004Z" fill="white"/>
<path d="M44.4698 8.84009H40.0498V13.2601H44.4698V8.84009Z" fill="white"/>
<path d="M48.8897 8.84009H44.4697V13.2601H48.8897V8.84009Z" fill="white"/>
<path d="M31.2091 4.42004H26.7891V8.84004H31.2091V4.42004Z" fill="white"/>
<path d="M35.629 4.42004H31.209V8.84004H35.629V4.42004Z" fill="white"/>
<path d="M9.10945 17.6801H4.68945V22.1001H9.10945V17.6801Z" fill="white"/>
<path d="M13.5294 13.26H9.10938V17.68H13.5294V13.26Z" fill="white"/>
<path d="M53.3097 17.6801H48.8896V22.1001H53.3097V17.6801Z" fill="white"/>
<path d="M48.8897 13.26H44.4697V17.68H48.8897V13.26Z" fill="white"/>
</g>
<path d="M22.3692 0H17.9492V4.42H22.3692V0Z" fill="#000600"/>
<path d="M17.9493 4.42004H13.5293V8.84004H17.9493V4.42004Z" fill="#000600"/>
<path d="M13.5294 4.42004H9.10938V8.84004H13.5294V4.42004Z" fill="#000600"/>
<path d="M26.7891 0H22.3691V4.42H26.7891V0Z" fill="#000600"/>
<path d="M40.0499 0H35.6299V4.42H40.0499V0Z" fill="#000600"/>
<path d="M44.4698 4.42004H40.0498V8.84004H44.4698V4.42004Z" fill="#000600"/>
<path d="M48.8897 4.42004H44.4697V8.84004H48.8897V4.42004Z" fill="#000600"/>
<path d="M40.0499 53.04H35.6299V57.46H40.0499V53.04Z" fill="#000600"/>
<path d="M44.4698 48.6201H40.0498V53.0401H44.4698V48.6201Z" fill="#000600"/>
<path d="M48.8897 48.6201H44.4697V53.0401H48.8897V48.6201Z" fill="#000600"/>
<path d="M26.7891 53.04H22.3691V57.46H26.7891V53.04Z" fill="#000600"/>
<path d="M31.2091 0H26.7891V4.42H31.2091V0Z" fill="#000600"/>
<path d="M31.2091 53.04H26.7891V57.46H31.2091V53.04Z" fill="#000600"/>
<path d="M35.63 0H31.21V4.42H35.63V0Z" fill="#000600"/>
<path d="M35.63 53.04H31.21V57.46H35.63V53.04Z" fill="#000600"/>
<path d="M26.7891 39.78H22.3691V44.2H26.7891V39.78Z" fill="#000600"/>
<path d="M31.2091 39.78H26.7891V44.2H31.2091V39.78Z" fill="#000600"/>
<path d="M35.63 39.78H31.21V44.2H35.63V39.78Z" fill="#000600"/>
<path d="M40.0499 35.36H35.6299V39.78H40.0499V35.36Z" fill="#000600"/>
<path d="M22.3692 35.36H17.9492V39.78H22.3692V35.36Z" fill="#000600"/>
<path d="M22.3692 53.04H17.9492V57.46H22.3692V53.04Z" fill="#000600"/>
<path d="M17.9493 48.6201H13.5293V53.0401H17.9493V48.6201Z" fill="#000600"/>
<path d="M13.5294 48.6201H9.10938V53.0401H13.5294V48.6201Z" fill="#000600"/>
<path d="M4.68953 35.36H0.269531V39.78H4.68953V35.36Z" fill="#000600"/>
<path d="M9.10945 39.78H4.68945V44.2H9.10945V39.78Z" fill="#000600"/>
<path d="M9.10945 44.2H4.68945V48.6199H9.10945V44.2Z" fill="#000600"/>
<path d="M4.68953 30.9399H0.269531V35.3599H4.68953V30.9399Z" fill="#000600"/>
<path d="M4.68953 17.6801H0.269531V22.1001H4.68953V17.6801Z" fill="#000600"/>
<path d="M22.3692 22.1H17.9492V26.52H22.3692V22.1Z" fill="#000600"/>
<path d="M17.9493 22.1H13.5293V26.52H17.9493V22.1Z" fill="#000600"/>
<path d="M40.0499 22.1H35.6299V26.52H40.0499V22.1Z" fill="#000600"/>
<path d="M44.4698 22.1H40.0498V26.52H44.4698V22.1Z" fill="#000600"/>
<path d="M9.10945 13.26H4.68945V17.68H9.10945V13.26Z" fill="#000600"/>
<path d="M9.10945 8.83997H4.68945V13.26H9.10945V8.83997Z" fill="#000600"/>
<path d="M57.7296 17.6801H53.3096V22.1001H57.7296V17.6801Z" fill="#000600"/>
<path d="M53.3097 13.26H48.8896V17.68H53.3097V13.26Z" fill="#000600"/>
<path d="M53.3097 8.83997H48.8896V13.26H53.3097V8.83997Z" fill="#000600"/>
<path d="M57.7296 30.9399H53.3096V35.3599H57.7296V30.9399Z" fill="#000600"/>
<path d="M4.68953 26.52H0.269531V30.94H4.68953V26.52Z" fill="#000600"/>
<path d="M57.7296 26.52H53.3096V30.94H57.7296V26.52Z" fill="#000600"/>
<path d="M4.68953 22.1H0.269531V26.52H4.68953V22.1Z" fill="#000600"/>
<path d="M57.7296 22.1H53.3096V26.52H57.7296V22.1Z" fill="#000600"/>
<path d="M57.7296 35.36H53.3096V39.78H57.7296V35.36Z" fill="#000600"/>
<path d="M53.3097 39.78H48.8896V44.2H53.3097V39.78Z" fill="#000600"/>
<path d="M53.3097 44.2H48.8896V48.6199H53.3097V44.2Z" fill="#000600"/>
</g>
<defs>
<clipPath id="clip0_74_10431">
<rect width="57.46" height="57.46" fill="white" transform="translate(0.269531)"/>
</clipPath>
</defs>
</svg>
