<svg width="209" height="221" viewBox="0 0 209 221" fill="none" xmlns="http://www.w3.org/2000/svg">
<g clip-path="url(#clip0_74_3354)">
<path d="M186.426 150.279L178.227 155.929L183.861 164.105L192.06 158.455L186.426 150.279Z" fill="black"/>
<path d="M178.226 155.929L170.026 161.579L175.66 169.755L183.86 164.105L178.226 155.929Z" fill="black"/>
<path d="M170.038 161.571L161.839 167.221L167.473 175.397L175.672 169.747L170.038 161.571Z" fill="black"/>
<path d="M161.838 167.221L153.639 172.871L159.273 181.047L167.472 175.397L161.838 167.221Z" fill="black"/>
<path d="M153.639 172.871L145.439 178.521L151.073 186.697L159.273 181.047L153.639 172.871Z" fill="black"/>
<path d="M145.451 178.513L137.252 184.163L142.886 192.339L151.085 186.689L145.451 178.513Z" fill="black"/>
<path d="M180.792 142.103L172.593 147.753L178.227 155.929L186.426 150.279L180.792 142.103Z" fill="black"/>
<path d="M172.592 147.753L164.393 153.403L170.027 161.579L178.226 155.929L172.592 147.753Z" fill="white"/>
<path d="M164.404 153.395L156.204 159.045L161.838 167.221L170.038 161.571L164.404 153.395Z" fill="white"/>
<path d="M156.204 159.045L148.005 164.695L153.639 172.871L161.838 167.221L156.204 159.045Z" fill="white"/>
<path d="M148.005 164.695L139.806 170.345L145.44 178.521L153.639 172.871L148.005 164.695Z" fill="white"/>
<path d="M139.818 170.337L131.618 175.987L137.252 184.163L145.452 178.513L139.818 170.337Z" fill="white"/>
<path d="M131.617 175.987L123.418 181.637L129.052 189.813L137.251 184.163L131.617 175.987Z" fill="black"/>
<path d="M183.346 128.284L175.146 133.935L180.78 142.111L188.98 136.461L183.346 128.284Z" fill="black"/>
<path d="M175.158 133.927L166.958 139.577L172.592 147.753L180.792 142.103L175.158 133.927Z" fill="white"/>
<path d="M166.958 139.577L158.759 145.227L164.393 153.403L172.592 147.753L166.958 139.577Z" fill="white"/>
<path d="M158.771 145.219L150.571 150.869L156.205 159.045L164.405 153.395L158.771 145.219Z" fill="white"/>
<path d="M150.572 150.869L142.372 156.519L148.006 164.695L156.206 159.045L150.572 150.869Z" fill="white"/>
<path d="M142.371 156.519L134.172 162.169L139.806 170.345L148.005 164.695L142.371 156.519Z" fill="white"/>
<path d="M134.183 162.161L125.983 167.811L131.617 175.987L139.817 170.337L134.183 162.161Z" fill="white"/>
<path d="M125.984 167.811L117.784 173.461L123.418 181.637L131.618 175.987L125.984 167.811Z" fill="black"/>
<path d="M177.711 120.108L169.512 125.758L175.146 133.935L183.345 128.284L177.711 120.108Z" fill="black"/>
<path d="M169.524 125.75L161.324 131.4L166.958 139.577L175.158 133.926L169.524 125.75Z" fill="white"/>
<path d="M161.324 131.4L153.124 137.05L158.758 145.227L166.958 139.577L161.324 131.4Z" fill="white"/>
<path d="M153.137 137.042L144.938 142.693L150.571 150.869L158.771 145.219L153.137 137.042Z" fill="white"/>
<path d="M144.937 142.693L136.737 148.343L142.371 156.519L150.571 150.869L144.937 142.693Z" fill="white"/>
<path d="M136.738 148.343L128.538 153.993L134.172 162.169L142.372 156.519L136.738 148.343Z" fill="white"/>
<path d="M128.549 153.985L120.35 159.635L125.984 167.811L134.183 162.161L128.549 153.985Z" fill="white"/>
<path d="M120.35 159.635L112.15 165.285L117.784 173.461L125.984 167.811L120.35 159.635Z" fill="white"/>
<path d="M112.162 165.277L103.963 170.927L109.597 179.103L117.796 173.453L112.162 165.277Z" fill="black"/>
<path d="M180.278 106.282L172.078 111.932L177.712 120.108L185.912 114.458L180.278 106.282Z" fill="black"/>
<path d="M172.077 111.932L163.878 117.582L169.512 125.758L177.711 120.108L172.077 111.932Z" fill="white"/>
<path d="M163.889 117.574L155.689 123.224L161.323 131.4L169.523 125.75L163.889 117.574Z" fill="white"/>
<path d="M155.691 123.224L147.491 128.874L153.125 137.05L161.325 131.4L155.691 123.224Z" fill="white"/>
<path d="M147.502 128.866L139.303 134.516L144.937 142.693L153.136 137.043L147.502 128.866Z" fill="white"/>
<path d="M139.303 134.516L131.104 140.167L136.737 148.343L144.937 142.693L139.303 134.516Z" fill="white"/>
<path d="M131.103 140.167L122.903 145.817L128.537 153.993L136.737 148.343L131.103 140.167Z" fill="white"/>
<path d="M122.915 145.808L114.716 151.458L120.35 159.635L128.549 153.985L122.915 145.808Z" fill="white"/>
<path d="M114.716 151.459L106.517 157.109L112.151 165.285L120.35 159.635L114.716 151.459Z" fill="white"/>
<path d="M106.528 157.101L98.3281 162.751L103.962 170.927L112.162 165.277L106.528 157.101Z" fill="black"/>
<path d="M174.643 98.1059L166.443 103.756L172.077 111.932L180.277 106.282L174.643 98.1059Z" fill="black"/>
<path d="M166.444 103.756L158.244 109.406L163.878 117.582L172.078 111.932L166.444 103.756Z" fill="white"/>
<path d="M158.256 109.398L150.057 115.048L155.691 123.224L163.89 117.574L158.256 109.398Z" fill="white"/>
<path d="M150.057 115.048L141.857 120.698L147.491 128.874L155.691 123.224L150.057 115.048Z" fill="white"/>
<path d="M141.868 120.69L133.669 126.34L139.303 134.516L147.502 128.866L141.868 120.69Z" fill="white"/>
<path d="M133.668 126.34L125.469 131.99L131.103 140.166L139.302 134.516L133.668 126.34Z" fill="white"/>
<path d="M125.469 131.99L117.27 137.64L122.904 145.816L131.103 140.166L125.469 131.99Z" fill="white"/>
<path d="M117.282 137.632L109.082 143.282L114.716 151.459L122.916 145.808L117.282 137.632Z" fill="white"/>
<path d="M109.082 143.282L100.883 148.932L106.517 157.109L114.716 151.459L109.082 143.282Z" fill="white"/>
<path d="M100.894 148.924L92.6943 154.575L98.3283 162.751L106.528 157.101L100.894 148.924Z" fill="white"/>
<path d="M92.6946 154.575L84.4951 160.225L90.1291 168.401L98.3286 162.751L92.6946 154.575Z" fill="black"/>
<path d="M169.009 89.9298L160.81 95.5799L166.444 103.756L174.643 98.106L169.009 89.9298Z" fill="black"/>
<path d="M160.809 95.5799L152.609 101.23L158.243 109.406L166.443 103.756L160.809 95.5799Z" fill="white"/>
<path d="M152.622 101.222L144.423 106.872L150.057 115.048L158.256 109.398L152.622 101.222Z" fill="white"/>
<path d="M144.422 106.872L136.223 112.522L141.857 120.698L150.056 115.048L144.422 106.872Z" fill="white"/>
<path d="M136.235 112.514L128.035 118.164L133.669 126.34L141.869 120.69L136.235 112.514Z" fill="white"/>
<path d="M128.034 118.164L119.835 123.814L125.469 131.99L133.668 126.34L128.034 118.164Z" fill="white"/>
<path d="M119.835 123.814L111.636 129.464L117.27 137.64L125.469 131.99L119.835 123.814Z" fill="white"/>
<path d="M111.648 129.456L103.448 135.106L109.082 143.282L117.282 137.632L111.648 129.456Z" fill="white"/>
<path d="M103.448 135.106L95.248 140.756L100.882 148.933L109.082 143.282L103.448 135.106Z" fill="white"/>
<path d="M95.2601 140.748L87.0605 146.398L92.6945 154.575L100.894 148.924L95.2601 140.748Z" fill="white"/>
<path d="M87.0609 146.398L78.8613 152.048L84.4953 160.225L92.6948 154.574L87.0609 146.398Z" fill="black"/>
<path d="M163.375 81.7536L155.176 87.4036L160.81 95.5798L169.009 89.9297L163.375 81.7536Z" fill="black"/>
<path d="M155.176 87.4036L146.977 93.0537L152.611 101.23L160.81 95.5798L155.176 87.4036Z" fill="white"/>
<path d="M146.988 93.0457L138.788 98.6957L144.422 106.872L152.622 101.222L146.988 93.0457Z" fill="white"/>
<path d="M138.788 98.6957L130.589 104.346L136.223 112.522L144.422 106.872L138.788 98.6957Z" fill="white"/>
<path d="M130.6 104.338L122.4 109.988L128.034 118.164L136.234 112.514L130.6 104.338Z" fill="white"/>
<path d="M122.401 109.988L114.201 115.638L119.835 123.814L128.035 118.164L122.401 109.988Z" fill="white"/>
<path d="M114.201 115.638L106.002 121.288L111.636 129.464L119.835 123.814L114.201 115.638Z" fill="white"/>
<path d="M106.014 121.28L97.8145 126.93L103.448 135.106L111.648 129.456L106.014 121.28Z" fill="white"/>
<path d="M97.8138 126.93L89.6143 132.58L95.2482 140.756L103.448 135.106L97.8138 126.93Z" fill="black"/>
<path d="M89.6263 132.572L81.4268 138.222L87.0607 146.398L95.2603 140.748L89.6263 132.572Z" fill="white"/>
<path d="M81.4271 138.222L73.2275 143.872L78.8615 152.048L87.061 146.398L81.4271 138.222Z" fill="white"/>
<path d="M73.2386 143.864L65.0391 149.514L70.673 157.69L78.8726 152.04L73.2386 143.864Z" fill="black"/>
<path d="M157.742 73.5775L149.542 79.2275L155.176 87.4037L163.375 81.7536L157.742 73.5775Z" fill="black"/>
<path d="M149.542 79.2275L141.343 84.8776L146.977 93.0538L155.176 87.4037L149.542 79.2275Z" fill="white"/>
<path d="M141.354 84.8696L133.154 90.5197L138.788 98.6958L146.988 93.0457L141.354 84.8696Z" fill="black"/>
<path d="M133.154 90.5197L124.954 96.1697L130.588 104.346L138.788 98.6958L133.154 90.5197Z" fill="white"/>
<path d="M124.966 96.1617L116.767 101.812L122.401 109.988L130.6 104.338L124.966 96.1617Z" fill="white"/>
<path d="M116.767 101.812L108.567 107.462L114.201 115.638L122.401 109.988L116.767 101.812Z" fill="white"/>
<path d="M108.568 107.462L100.368 113.112L106.002 121.288L114.202 115.638L108.568 107.462Z" fill="white"/>
<path d="M100.379 113.104L92.1797 118.754L97.8137 126.93L106.013 121.28L100.379 113.104Z" fill="white"/>
<path d="M92.18 118.754L83.9805 124.404L89.6144 132.58L97.814 126.93L92.18 118.754Z" fill="black"/>
<path d="M83.9925 124.396L75.793 130.046L81.4269 138.222L89.6265 132.572L83.9925 124.396Z" fill="black"/>
<path d="M75.7923 130.046L67.5928 135.696L73.2268 143.872L81.4263 138.222L75.7923 130.046Z" fill="white"/>
<path d="M67.6048 135.688L59.4053 141.338L65.0393 149.514L73.2388 143.864L67.6048 135.688Z" fill="white"/>
<path d="M59.4056 141.338L51.2061 146.988L56.84 155.164L65.0396 149.514L59.4056 141.338Z" fill="black"/>
<path d="M152.108 65.4013L143.908 71.0514L149.542 79.2276L157.742 73.5775L152.108 65.4013Z" fill="black"/>
<path d="M143.908 71.0514L135.708 76.7015L141.342 84.8776L149.542 79.2276L143.908 71.0514Z" fill="white"/>
<path d="M135.72 76.6934L127.521 82.3435L133.154 90.5197L141.354 84.8696L135.72 76.6934Z" fill="black"/>
<path d="M127.52 82.3434L119.32 87.9935L124.954 96.1696L133.154 90.5196L127.52 82.3434Z" fill="white"/>
<path d="M119.332 87.9854L111.133 93.6355L116.767 101.812L124.966 96.1616L119.332 87.9854Z" fill="black"/>
<path d="M111.133 93.6356L102.934 99.2856L108.568 107.462L116.767 101.812L111.133 93.6356Z" fill="white"/>
<path d="M102.933 99.2857L94.7334 104.936L100.367 113.112L108.567 107.462L102.933 99.2857Z" fill="black"/>
<path d="M94.7454 104.928L86.5459 110.578L92.1799 118.754L100.379 113.104L94.7454 104.928Z" fill="white"/>
<path d="M86.5462 110.578L78.3467 116.228L83.9807 124.404L92.1802 118.754L86.5462 110.578Z" fill="black"/>
<path d="M70.1585 121.87L61.959 127.52L67.593 135.696L75.7925 130.046L70.1585 121.87Z" fill="black"/>
<path d="M61.971 127.512L53.7715 133.162L59.4055 141.338L67.605 135.688L61.971 127.512Z" fill="black"/>
<path d="M53.7718 133.162L45.5723 138.812L51.2062 146.988L59.4058 141.338L53.7718 133.162Z" fill="black"/>
<path d="M138.274 62.8751L130.074 68.5252L135.708 76.7014L143.908 71.0513L138.274 62.8751Z" fill="black"/>
<path d="M130.085 68.5172L121.886 74.1673L127.52 82.3435L135.719 76.6934L130.085 68.5172Z" fill="black"/>
<path d="M121.887 74.1673L113.688 79.8174L119.321 87.9935L127.521 82.3435L121.887 74.1673Z" fill="white"/>
<path d="M113.699 79.8093L105.499 85.4594L111.133 93.6356L119.333 87.9855L113.699 79.8093Z" fill="black"/>
<path d="M105.499 85.4594L97.2998 91.1095L102.934 99.2857L111.133 93.6356L105.499 85.4594Z" fill="white"/>
<path d="M97.2991 91.1095L89.0996 96.7596L94.7336 104.936L102.933 99.2857L97.2991 91.1095Z" fill="black"/>
<path d="M89.1116 96.7515L80.9121 102.402L86.5461 110.578L94.7456 104.928L89.1116 96.7515Z" fill="white"/>
<path d="M80.9124 102.402L72.7129 108.052L78.3469 116.228L86.5464 110.578L80.9124 102.402Z" fill="black"/>
<path d="M116.252 65.9912L108.053 71.6412L113.687 79.8174L121.886 74.1673L116.252 65.9912Z" fill="black"/>
<path d="M108.065 71.6332L99.8652 77.2833L105.499 85.4594L113.699 79.8094L108.065 71.6332Z" fill="black"/>
<path d="M99.8646 77.2833L91.665 82.9333L97.299 91.1095L105.499 85.4594L99.8646 77.2833Z" fill="white"/>
<path d="M91.6653 82.9332L83.4658 88.5833L89.0998 96.7595L97.2993 91.1094L91.6653 82.9332Z" fill="black"/>
<path d="M83.4778 88.5753L75.2783 94.2254L80.9123 102.402L89.1118 96.7515L83.4778 88.5753Z" fill="white"/>
<path d="M75.2786 94.2254L67.0791 99.8755L72.7131 108.052L80.9126 102.402L75.2786 94.2254Z" fill="black"/>
<path d="M94.2308 69.1071L86.0312 74.7571L91.6652 82.9333L99.8648 77.2832L94.2308 69.1071Z" fill="black"/>
<path d="M86.0316 74.7572L77.832 80.4072L83.466 88.5834L91.6655 82.9333L86.0316 74.7572Z" fill="black"/>
<path d="M77.8441 80.3992L69.6445 86.0493L75.2785 94.2254L83.478 88.5753L77.8441 80.3992Z" fill="white"/>
<path d="M69.6439 86.0493L61.4443 91.6993L67.0783 99.8755L75.2778 94.2254L69.6439 86.0493Z" fill="black"/>
<path d="M80.3978 66.581L72.1982 72.2311L77.8322 80.4072L86.0317 74.7572L80.3978 66.581Z" fill="black"/>
<path d="M72.2093 72.223L64.0098 77.8731L69.6437 86.0493L77.8433 80.3992L72.2093 72.223Z" fill="white"/>
<path d="M64.0101 77.8731L55.8105 83.5232L61.4445 91.6994L69.6441 86.0493L64.0101 77.8731Z" fill="black"/>
<path d="M74.764 58.4049L66.5645 64.0549L72.1984 72.2311L80.398 66.581L74.764 58.4049Z" fill="black"/>
<path d="M66.5755 64.0468L58.376 69.6969L64.01 77.8731L72.2095 72.223L66.5755 64.0468Z" fill="white"/>
<path d="M58.3763 69.6969L50.1768 75.347L55.8107 83.5231L64.0103 77.8731L58.3763 69.6969Z" fill="black"/>
<path d="M69.1292 50.2286L60.9297 55.8787L66.5637 64.0549L74.7632 58.4048L69.1292 50.2286Z" fill="black"/>
<path d="M60.9417 55.8707L52.7422 61.5208L58.3762 69.6969L66.5757 64.0468L60.9417 55.8707Z" fill="white"/>
<path d="M52.7425 61.5208L44.543 67.1708L50.1769 75.347L58.3765 69.6969L52.7425 61.5208Z" fill="black"/>
<path d="M63.4954 42.0525L55.2959 47.7026L60.9299 55.8787L69.1294 50.2287L63.4954 42.0525Z" fill="black"/>
<path d="M55.3079 47.6945L47.1084 53.3446L52.7424 61.5208L60.9419 55.8707L55.3079 47.6945Z" fill="white"/>
<path d="M47.1087 53.3446L38.9092 58.9947L44.5432 67.1709L52.7427 61.5208L47.1087 53.3446Z" fill="black"/>
<path d="M49.6741 39.5184L41.4746 45.1685L47.1086 53.3446L55.3081 47.6945L49.6741 39.5184Z" fill="black"/>
</g>
<defs>
<clipPath id="clip0_74_3354">
<rect width="129.365" height="178.728" fill="white" transform="translate(0.5 73.4027) rotate(-34.5697)"/>
</clipPath>
</defs>
</svg>
