<svg width="130" height="128" viewBox="0 0 130 128" fill="none" xmlns="http://www.w3.org/2000/svg">
<path d="M81.7128 1.69788L90.0965 16.5585L107.098 15.1142L108.203 32.1407L124.148 38.2159L117.756 54.036L129.485 66.4275L116.863 77.9078L122.054 94.1613L105.701 99.028L103.326 115.924L86.48 113.214L77.0092 127.406L63.0079 117.655L48.3171 126.333L39.9334 111.472L22.9322 112.916L21.8265 95.8897L5.88236 89.8145L12.2737 73.9944L0.544431 61.6029L13.1669 50.1226L7.97568 33.8691L24.3293 29.0024L26.7043 12.1061L43.5499 14.8169L53.0207 0.624295L67.022 10.3757L81.7128 1.69788Z" fill="#0013FF"/>
</svg>
