<svg width="112" height="111" viewBox="0 0 112 111" fill="none" xmlns="http://www.w3.org/2000/svg">
<path d="M70.6997 1.42752L77.9435 14.2676L92.6331 13.0196L93.5884 27.7311L107.365 32.9803L101.842 46.6494L111.977 57.3561L101.071 67.2755L105.556 81.319L91.426 85.524L89.3739 100.123L74.8187 97.7808L66.6356 110.044L54.538 101.618L41.8447 109.116L34.6009 96.2759L19.9113 97.5239L18.956 82.8124L5.17966 77.5632L10.702 63.8941L0.567508 53.1874L11.4738 43.2681L6.98836 29.2245L21.1184 25.0195L23.1705 10.4205L37.7257 12.7628L45.9088 0.499912L58.0063 8.92547L70.6997 1.42752Z" fill="#CBFF63"/>
</svg>
