<svg width="289" height="42" viewBox="0 0 289 42" fill="none" xmlns="http://www.w3.org/2000/svg">
<g clip-path="url(#clip0_95_2800)">
<path d="M289 42H0.172325L0 0H288.828L289 42Z" fill="#CBFF63"/>
<path d="M3.5147 23.9797C2.28139 23.4963 1.5752 23.0974 1.5752 21.8197V16.4856C1.5752 15.2958 2.28139 14.809 3.5147 14.3256L21.5379 7.31491C22.876 6.80448 24.0485 7.2473 24.0485 9.03547V11.1076C24.0485 12.3853 23.4741 13.2236 22.2847 13.6191L8.79935 18.2907C8.29251 18.4665 8.03571 18.8079 8.03571 19.1493C8.03571 19.4907 8.29251 19.8321 8.79935 20.0079L22.2847 24.6794C23.4741 25.0749 24.0485 25.8693 24.0485 27.191V29.2631C24.0485 31.0343 22.8625 31.4839 21.5379 30.9803L3.5147 23.9696V23.9797Z" fill="#0013FF"/>
<path d="M29.3359 40.6512C28.1026 40.6512 27.5147 39.9346 27.7614 38.7245L35.0261 2.93406C35.2389 1.88617 35.8708 1.36561 36.9419 1.36561H40.1114C41.3447 1.36561 41.9292 2.08561 41.6859 3.29237L34.4246 39.0828C34.2117 40.1307 33.5799 40.6512 32.5088 40.6512H29.3393H29.3359Z" fill="#0013FF"/>
<path d="M46.0383 34.4281C44.3184 34.4281 43.3926 33.6777 43.3926 31.7814V6.21294C43.3926 4.49237 44.1427 3.56618 46.0383 3.56618H54.3673C56.2629 3.56618 57.2361 4.53632 57.628 6.12167L60.6251 18.2907C60.713 18.6422 60.9765 18.818 61.2367 18.818C61.4969 18.818 61.7402 18.6422 61.8145 18.2907L64.369 6.16561C64.7576 4.32336 65.8219 3.56618 67.5418 3.56618H75.9148C77.6347 3.56618 78.5605 4.36054 78.5605 6.21294V31.7814C78.5605 33.6777 77.6347 34.4281 75.9148 34.4281H71.1573C69.4374 34.4281 68.5149 33.6338 68.5149 31.7814V19.1729C68.5149 18.6828 68.2683 18.4293 68.0081 18.4293C67.7783 18.4293 67.5452 18.6287 67.4573 19.0411L64.7677 31.8253C64.423 33.458 63.4465 34.4248 61.551 34.4248H59.5675C57.8476 34.4248 56.7529 33.7622 56.3069 31.8253L53.3097 18.7335C53.2354 18.3887 53.0327 18.2434 52.8299 18.2434C52.5664 18.2434 52.2961 18.4901 52.2961 18.8653V31.7814C52.2961 33.5019 51.5459 34.4281 49.6504 34.4281H46.0349H46.0383Z" fill="#0013FF"/>
<path d="M81.0703 18.9972C81.0703 8.38645 85.7907 3.12674 95.3125 3.12674C104.834 3.12674 109.582 8.38645 109.582 18.9972C109.582 29.6079 104.855 34.8676 95.3125 34.8676C85.7704 34.8676 81.0703 29.6079 81.0703 18.9972ZM98.7793 18.9093C98.7793 12.9532 97.8535 11.5031 95.3125 11.5031C92.3897 11.5031 91.8626 12.8214 91.8626 18.9972C91.8626 25.1729 92.3931 26.4912 95.3125 26.4912C97.7656 26.4912 98.7793 25.2169 98.7793 18.9093Z" fill="#0013FF"/>
<path d="M114.736 34.4281C113.016 34.4281 112.09 33.6777 112.09 31.7814V6.21631C112.09 4.31997 113.016 3.56955 114.736 3.56955H119.716C121.436 3.56955 122.362 4.31997 122.362 6.21631V13.7104C122.362 14.2445 122.622 14.5386 122.94 14.5386C123.173 14.5386 123.436 14.3797 123.639 14.018L128.532 5.29011C129.15 4.18814 130.073 3.56955 131.485 3.56955H136.905C138.614 3.56955 139.554 4.00223 139.554 5.02983C139.554 5.54025 139.324 6.19265 138.844 7.0073L133.161 16.7053C132.711 17.4726 132.465 18.2264 132.465 19.0005C132.465 19.7374 132.695 20.4912 133.161 21.289L138.844 30.987C139.311 31.7814 139.557 32.4405 139.557 32.9679C139.557 33.9279 138.729 34.4281 136.905 34.4281H131.529C130.252 34.4281 129.228 33.8603 128.576 32.711L123.639 23.9831C123.436 23.6248 123.19 23.4591 122.96 23.4591C122.635 23.4591 122.362 23.7904 122.362 24.3346V31.7848C122.362 33.5053 121.612 34.4315 119.716 34.4315H114.736V34.4281Z" fill="#0013FF"/>
<path d="M153.998 31.7814V6.21294C153.998 4.49237 154.748 3.56618 156.644 3.56618H161.624C163.52 3.56618 164.27 4.49237 164.27 6.21294V24.7301C164.27 25.5684 164.665 26.0518 165.591 26.0518H172.069C173.964 26.0518 174.711 26.978 174.711 28.6986V31.7848C174.711 33.5053 173.961 34.4315 172.069 34.4315H156.644C154.748 34.4315 153.998 33.5053 153.998 31.7848V31.7814Z" fill="#0013FF"/>
<path d="M178.144 34.4281C176.147 34.4281 175.782 33.3938 176.161 31.8727L182.462 6.12843C182.844 4.49575 183.814 3.57293 185.723 3.57293H195.681C197.563 3.57293 198.533 4.45519 198.985 6.12843L205.287 31.8727C205.635 33.3938 205.253 34.4281 203.26 34.4281H198.06C196.769 34.4281 195.887 33.8535 195.549 32.5318L195.286 31.5617C195.052 30.7673 194.522 30.2839 193.61 30.2839H187.75C186.899 30.2839 186.328 30.6355 186.075 31.5617L185.811 32.5318C185.446 33.7656 184.696 34.4281 183.3 34.4281H178.144ZM192.025 21.9076C192.805 21.9076 192.937 21.6 192.819 20.9814L191.278 13.7949C191.092 13.0005 190.298 12.9972 190.133 13.7949L188.592 20.9814C188.443 21.6574 188.612 21.9076 189.386 21.9076H192.028H192.025Z" fill="#0013FF"/>
<path d="M210.18 34.4281C208.284 34.4281 207.534 33.5019 207.534 31.7814V6.21294C207.534 4.49237 208.284 3.56618 210.18 3.56618H223.135C230.055 3.56618 233.886 6.4766 233.886 11.3679C233.886 14.4541 232.39 16.658 229.788 17.5403C229.44 17.6721 229.264 17.9932 229.264 18.311C229.264 18.6287 229.453 18.9735 229.832 19.0817C233.048 20.0518 234.768 22.4755 234.768 25.9132C234.768 31.511 230.933 34.4214 224.017 34.4214H210.18V34.4281ZM223.621 13.0479C223.621 11.5065 222.564 10.8439 220.097 10.8439H219.127C218.289 10.8439 217.806 11.1955 217.806 12.1656V13.9301C217.806 14.7684 218.201 15.2518 219.127 15.2518H220.097C222.564 15.2518 223.621 14.5893 223.621 13.0479ZM224.503 23.6281C224.503 22.0834 223.446 21.4242 220.979 21.4242H219.127C218.289 21.4242 217.806 21.7758 217.806 22.7459V24.5104C217.806 25.3487 218.201 25.8321 219.127 25.8321H220.979C223.446 25.8321 224.503 25.1696 224.503 23.6281Z" fill="#0013FF"/>
<path d="M238.736 34.2862C237.06 34.0834 236.09 33.1943 236.09 31.298V28.1239C236.09 26.1363 237.006 25.6428 238.732 25.778C239.499 25.8388 244.956 26.3831 247.818 26.3831C249.879 26.3831 250.629 26.1025 250.629 25.1256C250.629 23.858 249.339 23.7667 246.663 23.0941C239.56 21.3093 236.262 18.8079 236.262 12.8856C236.262 6.08448 240.449 3.14701 250.646 3.14701C252.37 3.14701 254.603 3.23152 257.546 3.4918C259.266 3.6473 260.188 4.53969 260.188 6.39208V9.3904C260.188 11.28 259.337 11.956 257.522 11.8242C257.421 11.8208 252.964 11.4929 250.305 11.4929C247.646 11.4929 247.058 11.787 247.058 12.8112C247.058 13.8355 247.788 14.0687 249.781 14.5217C255.765 15.8738 261.425 16.827 261.425 24.4529C261.425 31.609 257.316 34.871 246.76 34.871C245.504 34.871 243.182 34.827 238.732 34.2896L238.736 34.2862Z" fill="#0013FF"/>
<path d="M267.511 30.987C266.186 31.4907 265 31.0411 265 29.2698V27.1977C265 25.876 265.574 25.0817 266.764 24.6862L280.249 20.0146C280.756 19.8388 281.009 19.4941 281.009 19.156C281.009 18.818 280.753 18.4732 280.249 18.2974L266.764 13.6259C265.574 13.2304 265 12.3921 265 11.1143V9.04222C265 7.25743 266.172 6.81123 267.511 7.32166L285.534 14.3324C286.767 14.8157 287.473 15.3025 287.473 16.4924V21.8264C287.473 23.1042 286.767 23.5031 285.534 23.9864L267.511 30.9972V30.987Z" fill="#0013FF"/>
</g>
<defs>
<clipPath id="clip0_95_2800">
<rect width="289" height="42" fill="white"/>
</clipPath>
</defs>
</svg>
