<svg width="240" height="236" viewBox="0 0 240 236" fill="none" xmlns="http://www.w3.org/2000/svg">
<path d="M88.911 2.05829L116.236 18.1992L142.279 0.0614162L159.894 26.4598L191.228 21.4177L195.645 52.845L226.063 61.8972L216.407 92.1289L239.885 113.482L218.069 136.531L229.957 165.956L200.3 177.256L198.244 208.926L166.621 206.239L151.028 233.88L123.702 217.74L97.6599 235.877L80.044 209.479L48.7108 214.521L44.2934 183.094L13.8754 174.042L23.5312 143.81L0.0531782 122.456L21.8698 99.408L9.98179 69.9823L39.6382 58.6824L41.6948 27.0128L73.3172 29.6993L88.911 2.05829Z" fill="white"/>
</svg>
