<svg width="160" height="160" viewBox="0 0 160 160" fill="none" xmlns="http://www.w3.org/2000/svg">
<circle cx="80" cy="80" r="80" fill="url(#gradient1)"/>
<!-- Person with phone -->
<circle cx="80" cy="55" r="15" fill="#f59e0b"/>
<!-- Hair -->
<path d="M65 50Q80 35 95 50Q90 45 80 45Q70 45 65 50Z" fill="#dc2626"/>
<!-- Body -->
<rect x="70" y="70" width="20" height="30" rx="10" fill="#fbbf24"/>
<!-- Phone -->
<rect x="95" y="80" width="8" height="15" rx="2" fill="#374151"/>
<rect x="96" y="82" width="6" height="10" rx="1" fill="#60a5fa"/>
<!-- Arm -->
<circle cx="90" cy="85" r="3" fill="#f59e0b"/>
<rect x="88" y="82" width="8" height="6" rx="3" fill="#f59e0b"/>
<!-- Speech bubble -->
<circle cx="115" cy="65" r="12" fill="white" stroke="#e5e7eb" stroke-width="2"/>
<path d="M110 75L105 80L115 77Z" fill="white" stroke="#e5e7eb" stroke-width="1"/>
<circle cx="110" cy="65" r="2" fill="#2563eb"/>
<circle cx="115" cy="65" r="2" fill="#2563eb"/>
<circle cx="120" cy="65" r="2" fill="#2563eb"/>
<defs>
<linearGradient id="gradient1" x1="0" y1="0" x2="160" y2="160">
<stop offset="0%" stop-color="#fef3c7"/>
<stop offset="100%" stop-color="#fde68a"/>
</linearGradient>
</defs>
</svg>