<svg width="1200" height="630" viewBox="0 0 1200 630" fill="none" xmlns="http://www.w3.org/2000/svg">
<!-- Background -->
<rect width="1200" height="630" fill="url(#bgGradient)"/>

<!-- Background Pattern -->
<defs>
<pattern id="dots" x="0" y="0" width="40" height="40" patternUnits="userSpaceOnUse">
<circle cx="20" cy="20" r="2" fill="rgba(255,255,255,0.1)"/>
</pattern>
</defs>
<rect width="1200" height="630" fill="url(#dots)"/>

<!-- Logo -->
<g transform="translate(80, 80)">
<path d="M1.57509 7.11689L24.0484 31.1735L27.7059 1.36562L41.7401 40.6512L43.3922 3.56618L78.5598 34.4274L81.0706 3.12674L109.582 34.9887L112.089 3.56955L139.556 34.4319L153.998 3.56618L174.711 34.297L176.028 3.57294L205.402 34.4281L207.534 3.56618L234.768 34.4319L236.089 3.14702L261.425 34.8709L265 7.12413L287.473 31.1808" stroke="white" stroke-width="4" stroke-linecap="round" stroke-linejoin="round"/>
<text x="50" y="35" font-family="Arial Black, sans-serif" font-size="32" font-weight="900" fill="white">MOK LABS</text>
</g>

<!-- Main Title -->
<text x="80" y="220" font-family="Arial Black, sans-serif" font-size="64" font-weight="900" fill="white">
PNLD digital sem
</text>
<text x="80" y="290" font-family="Arial Black, sans-serif" font-size="64" font-weight="900" fill="#60a5fa">
complicação
</text>

<!-- Subtitle -->
<text x="80" y="350" font-family="Arial, sans-serif" font-size="28" fill="rgba(255,255,255,0.9)">
Transformamos seus materiais em versões digitais
</text>
<text x="80" y="385" font-family="Arial, sans-serif" font-size="28" fill="rgba(255,255,255,0.9)">
acessíveis e em conformidade com os editais do PNLD.
</text>

<!-- Call to Action -->
<rect x="80" y="440" width="280" height="60" rx="30" fill="#2563eb"/>
<text x="220" y="480" text-anchor="middle" font-family="Arial, sans-serif" font-size="24" font-weight="600" fill="white">
Vamos conversar!
</text>

<!-- Illustration -->
<g transform="translate(800, 200)">
<circle cx="100" cy="100" r="100" fill="url(#heroGradient)"/>
<circle cx="100" cy="100" r="75" fill="rgba(255,255,255,0.9)"/>
<rect x="60" y="70" width="80" height="60" rx="8" fill="#2563eb"/>
<path d="M75 90L85 100L115 85" stroke="white" stroke-width="3" stroke-linecap="round" stroke-linejoin="round"/>
<rect x="75" y="105" width="50" height="3" rx="1.5" fill="white"/>
<rect x="75" y="112" width="35" height="3" rx="1.5" fill="white"/>
</g>

<!-- Contact Info -->
<text x="80" y="570" font-family="Arial, sans-serif" font-size="18" fill="rgba(255,255,255,0.8)">
contato@moklabs.com.br  •  +55 (41) 99999-9999  •  @moklabs
</text>

<defs>
<linearGradient id="bgGradient" x1="0" y1="0" x2="1200" y2="630">
<stop offset="0%" stop-color="#1e40af"/>
<stop offset="100%" stop-color="#3b82f6"/>
</linearGradient>
<linearGradient id="heroGradient" x1="0" y1="0" x2="200" y2="200">
<stop offset="0%" stop-color="rgba(219,234,254,0.8)"/>
<stop offset="100%" stop-color="rgba(191,219,254,0.8)"/>
</linearGradient>
</defs>
</svg>