<svg width="76" height="236" viewBox="0 0 76 236" fill="none" xmlns="http://www.w3.org/2000/svg">
<path d="M151.027 2.05829L166.621 29.6993L198.244 27.0128L200.3 58.6824L229.956 69.9823L218.068 99.408L239.885 122.456L216.407 143.81L226.063 174.042L195.645 183.094L191.227 214.521L159.894 209.479L142.278 235.877L116.236 217.74L88.9107 233.88L73.3169 206.239L41.6945 208.926L39.638 177.256L9.98155 165.956L21.8696 136.531L0.0529408 113.482L23.531 92.1289L13.8752 61.8971L44.2931 52.845L48.7106 21.4176L80.0438 26.4598L97.6596 0.0614076L123.702 18.1992L151.027 2.05829Z" fill="#CBFF63"/>
</svg>
