<svg preserveAspectRatio="none" width="100%" height="100%" overflow="visible" style="display: block;" viewBox="0 0 218 30" fill="none" xmlns="http://www.w3.org/2000/svg">
<g id="Group">
<path id="Vector" d="M1.47779 17.2298C0.538124 16.8615 6.97768e-05 16.5576 6.97768e-05 15.5841V11.52C6.97768e-05 10.6134 0.538124 10.2426 1.47779 9.87429L15.2098 4.5328C16.2292 4.14391 17.1226 4.48129 17.1226 5.84371V7.42246C17.1226 8.39598 16.6849 9.03469 15.7787 9.33602L5.50419 12.8953C5.11803 13.0292 4.92237 13.2893 4.92237 13.5495C4.92237 13.8096 5.11803 14.0697 5.50419 14.2036L15.7787 17.7629C16.6849 18.0642 17.1226 18.6695 17.1226 19.6765V21.2552C17.1226 22.6048 16.2189 22.9473 15.2098 22.5635L1.47779 17.2221V17.2298Z" fill="var(--fill-0, #0013FF)"/>
<path id="Vector_2" d="M21.1515 29.9319C20.2118 29.9319 19.7639 29.3859 19.9518 28.4639L25.4868 1.19501C25.649 0.396625 26.1304 4.74234e-06 26.9465 4.74234e-06H29.3613C30.301 4.74234e-06 30.7464 0.548576 30.561 1.46801L25.0286 28.7369C24.8664 29.5353 24.385 29.9319 23.5689 29.9319H21.1541H21.1515Z" fill="var(--fill-0, #0013FF)"/>
<path id="Vector_3" d="M33.8767 25.1905C32.5663 25.1905 31.8609 24.6188 31.8609 23.1739V3.69321C31.8609 2.3823 32.4325 1.67663 33.8767 1.67663H40.2227C41.6669 1.67663 42.4083 2.41578 42.707 3.62367L44.9905 12.8953C45.0574 13.1631 45.2582 13.2971 45.4565 13.2971C45.6547 13.2971 45.8401 13.1631 45.8967 12.8953L47.843 3.65715C48.139 2.25353 48.95 1.67663 50.2603 1.67663H56.6398C57.9501 1.67663 58.6555 2.28186 58.6555 3.69321V23.1739C58.6555 24.6188 57.9501 25.1905 56.6398 25.1905H53.015C51.7046 25.1905 51.0018 24.5853 51.0018 23.1739V13.5675C51.0018 13.1941 50.8138 13.0009 50.6156 13.0009C50.4406 13.0009 50.2629 13.1528 50.196 13.4671L48.1467 23.2074C47.8841 24.4514 47.1401 25.1879 45.6959 25.1879H44.1847C42.8743 25.1879 42.0402 24.6831 41.7004 23.2074L39.4169 13.2327C39.3602 12.97 39.2058 12.8592 39.0513 12.8592C38.8505 12.8592 38.6445 13.0473 38.6445 13.3331V23.1739C38.6445 24.4848 38.073 25.1905 36.6288 25.1905H33.8741H33.8767Z" fill="var(--fill-0, #0013FF)"/>
<path id="Vector_4" d="M60.5685 13.4336C60.5685 5.34922 64.165 1.34182 71.4197 1.34182C78.6744 1.34182 82.2915 5.34922 82.2915 13.4336C82.2915 21.5179 78.6899 25.5253 71.4197 25.5253C64.1495 25.5253 60.5685 21.5179 60.5685 13.4336ZM74.0611 13.3666C74.0611 8.82866 73.3557 7.72379 71.4197 7.72379C69.1928 7.72379 68.7912 8.72821 68.7912 13.4336C68.7912 18.1389 69.1954 19.1433 71.4197 19.1433C73.2888 19.1433 74.0611 18.1724 74.0611 13.3666Z" fill="var(--fill-0, #0013FF)"/>
<path id="Vector_5" d="M86.2175 25.1905C84.9071 25.1905 84.2017 24.6188 84.2017 23.1739V3.69578C84.2017 2.25095 84.9071 1.6792 86.2175 1.6792H90.0122C91.3226 1.6792 92.028 2.25095 92.028 3.69578V9.40556C92.028 9.81248 92.2262 10.0365 92.4682 10.0365C92.6458 10.0365 92.8466 9.9155 93.0011 9.63992L96.7289 2.9901C97.2 2.15051 97.9028 1.6792 98.9789 1.6792H103.108C104.411 1.6792 105.127 2.00886 105.127 2.79179C105.127 3.18069 104.952 3.67775 104.586 4.29843L100.256 11.6874C99.9134 12.272 99.7255 12.8464 99.7255 13.4361C99.7255 13.9976 99.9005 14.5719 100.256 15.1797L104.586 22.5687C104.941 23.1739 105.129 23.6761 105.129 24.0779C105.129 24.8093 104.498 25.1905 103.108 25.1905H99.0124C98.0392 25.1905 97.2592 24.7578 96.7623 23.8822L93.0011 17.2324C92.8466 16.9594 92.6587 16.8332 92.4836 16.8332C92.2365 16.8332 92.028 17.0856 92.028 17.5002V23.1765C92.028 24.4874 91.4564 25.1931 90.0122 25.1931H86.2175V25.1905Z" fill="var(--fill-0, #0013FF)"/>
<path id="Vector_6" d="M116.132 23.1739V3.69321C116.132 2.3823 116.704 1.67663 118.148 1.67663H121.943C123.387 1.67663 123.958 2.3823 123.958 3.69321V17.8015C123.958 18.4403 124.26 18.8085 124.965 18.8085H129.9C131.344 18.8085 131.913 19.5142 131.913 20.8251V23.1765C131.913 24.4874 131.342 25.1931 129.9 25.1931H118.148C116.704 25.1931 116.132 24.4874 116.132 23.1765V23.1739Z" fill="var(--fill-0, #0013FF)"/>
<path id="Vector_7" d="M134.529 25.1905C133.008 25.1905 132.73 24.4024 133.018 23.2435L137.819 3.62882C138.11 2.38487 138.849 1.68178 140.304 1.68178H147.89C149.324 1.68178 150.063 2.35397 150.408 3.62882L155.21 23.2435C155.475 24.4024 155.184 25.1905 153.665 25.1905H149.703C148.719 25.1905 148.048 24.7527 147.79 23.7457L147.589 23.0065C147.412 22.4013 147.007 22.033 146.312 22.033H141.848C141.2 22.033 140.764 22.3009 140.571 23.0065L140.371 23.7457C140.093 24.6857 139.521 25.1905 138.458 25.1905H134.529ZM145.105 15.651C145.7 15.651 145.8 15.4167 145.71 14.9454L144.536 9.46995C144.394 8.86471 143.789 8.86214 143.663 9.46995L142.489 14.9454C142.376 15.4604 142.505 15.651 143.094 15.651H145.108H145.105Z" fill="var(--fill-0, #0013FF)"/>
<path id="Vector_8" d="M158.937 25.1905C157.493 25.1905 156.922 24.4848 156.922 23.1739V3.69321C156.922 2.3823 157.493 1.67663 158.937 1.67663H168.808C174.08 1.67663 177 3.89409 177 7.62077C177 9.97216 175.859 11.6514 173.877 12.3236C173.612 12.424 173.478 12.6687 173.478 12.9108C173.478 13.1528 173.622 13.4155 173.91 13.498C176.361 14.2371 177.671 16.0837 177.671 18.7029C177.671 22.9679 174.749 25.1854 169.48 25.1854H158.937V25.1905ZM169.178 8.90077C169.178 7.72637 168.373 7.22158 166.493 7.22158H165.754C165.116 7.22158 164.748 7.48943 164.748 8.22858V9.57297C164.748 10.2117 165.049 10.58 165.754 10.58H166.493C168.373 10.58 169.178 10.0752 169.178 8.90077ZM169.85 16.9619C169.85 15.785 169.045 15.2827 167.165 15.2827H165.754C165.116 15.2827 164.748 15.5506 164.748 16.2897V17.6341C164.748 18.2728 165.049 18.6411 165.754 18.6411H167.165C169.045 18.6411 169.85 18.1363 169.85 16.9619Z" fill="var(--fill-0, #0013FF)"/>
<path id="Vector_9" d="M180.694 25.0823C179.417 24.9278 178.678 24.2505 178.678 22.8056V20.3873C178.678 18.8729 179.376 18.4969 180.691 18.5999C181.275 18.6463 185.433 19.0609 187.614 19.0609C189.184 19.0609 189.756 18.8472 189.756 18.1029C189.756 17.1371 188.772 17.0675 186.733 16.555C181.322 15.1952 178.809 13.2893 178.809 8.77715C178.809 3.59533 181.999 1.35727 189.769 1.35727C191.081 1.35727 192.783 1.42165 195.025 1.61996C196.336 1.73843 197.039 2.41835 197.039 3.8297V6.11413C197.039 7.55381 196.39 8.0689 195.007 7.96845C194.93 7.96588 191.535 7.71606 189.509 7.71606C187.482 7.71606 187.034 7.94012 187.034 8.72049C187.034 9.50085 187.591 9.67855 189.109 10.0237C193.669 11.0538 197.981 11.7801 197.981 17.5903C197.981 23.0426 194.85 25.5279 186.808 25.5279C185.85 25.5279 184.082 25.4944 180.691 25.0849L180.694 25.0823Z" fill="var(--fill-0, #0013FF)"/>
<path id="Vector_10" d="M202.618 22.5687C201.609 22.9524 200.705 22.6099 200.705 21.2604V19.6816C200.705 18.6746 201.143 18.0694 202.049 17.768L212.323 14.2088C212.71 14.0748 212.903 13.8122 212.903 13.5546C212.903 13.2971 212.707 13.0344 212.323 12.9004L202.049 9.34117C201.143 9.03984 200.705 8.40113 200.705 7.42761V5.84885C200.705 4.48901 201.598 4.14905 202.618 4.53795L216.35 9.87944C217.289 10.2477 217.828 10.6186 217.828 11.5252V15.5892C217.828 16.5627 217.289 16.8666 216.35 17.2349L202.618 22.5764V22.5687Z" fill="var(--fill-0, #0013FF)"/>
</g>
</svg>
